<svg width="512" height="467" viewBox="0 0 512 467" fill="none" xmlns="http://www.w3.org/2000/svg">
<path d="M512 382C512 458 423.066 458 334.698 458C246.33 458 161 440.818 161 382C161 323.182 84 236 334.698 245C474.5 250.019 512 323.182 512 382Z" fill="#E7C285"/>
<path d="M277 382C277 440.818 215.304 458 154 458C92.6964 458 33.5 440.818 33.5 382C33.5 323.182 92.6964 245 154 245C215.304 245 277 323.182 277 382Z" fill="#EBD2A6"/>
<path d="M503.467 449.707H485.786C502.279 437.591 512 416.879 512 381.44C512 296.107 459.093 236.373 384 236.373H379.189C378.12 235.81 376.936 235.52 375.466 235.52C373.759 235.52 371.199 236.373 369.493 238.08C360.168 247.405 349.49 244.049 343.056 240.55C341.254 239.463 340.03 238.484 339.626 238.08L337.066 236.373H336.134C333.819 235.515 331.403 235.557 329.361 236.373H296.105L295.289 237.189C294.355 237.609 293.441 238.184 292.692 238.933C288.168 243.174 283.366 244.689 278.901 244.769C270.266 244.575 263.077 239.184 261.972 238.079L259.412 236.372H258.488C256.811 235.742 254.98 235.783 253.235 236.372H153.6C78.507 236.372 25.6 296.105 25.6 381.439C25.6 416.878 35.321 437.59 51.814 449.706H8.533C3.413 449.706 0 453.119 0 458.239C0 463.359 3.413 466.772 8.533 466.772H153.6H384H503.467C508.587 466.772 512 463.359 512 458.239C512 453.119 508.587 449.707 503.467 449.707ZM374.613 256.854C390.827 275.627 409.6 301.227 409.6 321.707C409.6 326.827 406.187 330.24 401.067 330.24C395.947 330.24 392.534 326.827 392.534 321.707C392.534 302.08 376.321 279.894 360.961 261.974C366.08 261.12 370.347 259.414 374.613 256.854ZM297.813 256.854C314.027 275.627 332.8 301.227 332.8 321.707C332.8 326.827 329.387 330.24 324.267 330.24C319.147 330.24 315.734 326.827 315.734 321.707C315.734 302.08 300.374 279.894 285.014 261.974C289.28 261.12 293.547 259.414 297.813 256.854ZM42.667 381.44C42.667 292.693 98.134 253.44 153.6 253.44C209.067 253.44 264.533 292.693 264.533 381.44C264.533 447.147 232.106 449.707 153.6 449.707C75.094 449.707 42.667 447.147 42.667 381.44ZM255.386 449.707C257.411 448.22 259.334 446.603 261.149 444.845C261.189 444.807 261.229 444.768 261.269 444.73C261.448 444.555 261.63 444.384 261.807 444.206C274.032 432.349 280.927 414.106 281.549 385.709C281.553 385.548 281.558 385.39 281.561 385.228C281.585 383.983 281.601 382.723 281.601 381.439C281.601 379.796 281.575 378.167 281.536 376.543C281.526 376.129 281.512 375.717 281.5 375.304C281.459 373.94 281.404 372.582 281.336 371.232C281.323 370.973 281.312 370.713 281.298 370.455C278.412 317.724 254.734 275.92 218.126 253.771C217.95 253.663 217.779 253.547 217.602 253.439H252.796C281.05 279.882 298.668 305.999 298.668 321.706C298.668 336.213 309.761 347.306 324.268 347.306C338.775 347.306 349.868 336.213 349.015 321.706C349.015 298.972 333.441 274.571 316.664 253.439H329.596C357.85 279.882 375.468 305.999 375.468 321.706C375.468 336.213 386.561 347.306 401.068 347.306C415.575 347.306 426.668 336.213 425.815 320.853C425.815 298.593 410.884 274.737 394.512 253.915C446.262 258.605 494.935 298.307 494.935 381.44C494.935 447.147 462.508 449.707 384.002 449.707H255.386V449.707Z" fill="black"/>
<path d="M96.427 401.067L87.894 409.6C84.481 413.013 84.481 418.133 87.894 421.547C89.601 423.254 91.307 424.107 93.867 424.107C96.427 424.107 98.134 423.254 99.84 421.547L108.373 413.014C111.786 409.601 111.786 404.481 108.373 401.067C104.96 397.653 99.84 397.654 96.427 401.067Z" fill="black"/>
<path d="M116.907 290.134C113.494 286.721 108.374 286.721 104.96 290.134C101.546 293.547 101.547 298.667 104.96 302.081L113.493 310.614C115.2 312.321 116.906 313.174 119.466 313.174C122.026 313.174 123.733 312.321 125.439 310.614C128.852 307.201 128.852 302.081 125.439 298.667L116.907 290.134Z" fill="black"/>
<path d="M156.16 349.867L147.627 358.4C144.214 361.813 144.214 366.933 147.627 370.347C149.334 372.054 151.04 372.907 153.6 372.907C156.16 372.907 157.867 372.054 159.573 370.347L168.106 361.814C171.519 358.401 171.519 353.281 168.106 349.867C164.693 346.453 159.573 346.454 156.16 349.867Z" fill="black"/>
<path d="M210.773 401.067C207.36 397.654 202.24 397.654 198.826 401.067C195.412 404.48 195.413 409.6 198.826 413.014L207.359 421.547C209.066 423.254 210.772 424.107 213.332 424.107C215.892 424.107 217.599 423.254 219.305 421.547C222.718 418.134 222.718 413.014 219.305 409.6L210.773 401.067Z" fill="black"/>
<path d="M204.8 330.24C209.92 330.24 213.333 326.827 213.333 321.707V313.174C213.333 308.054 209.92 304.641 204.8 304.641C199.68 304.641 196.267 308.054 196.267 313.174V321.707C196.267 326.827 199.68 330.24 204.8 330.24Z" fill="black"/>
<path d="M449.707 63.147L475.307 37.547V25.6L449.707 0H437.76L412.16 25.6V37.547L437.76 63.147H449.707V63.147ZM443.733 17.92L457.386 31.573L443.733 45.227L430.08 31.574L443.733 17.92Z" fill="black"/>
<path d="M204.8 57.174C219.307 57.174 230.4 68.267 230.4 82.774C230.4 87.894 233.813 91.307 238.933 91.307C244.053 91.307 247.466 87.894 247.466 82.774C247.466 68.267 258.559 57.174 273.066 57.174C278.186 57.174 281.599 53.761 281.599 48.641C281.599 43.521 278.186 40.108 273.066 40.108C258.559 40.108 247.466 29.015 247.466 14.508C247.466 9.38801 244.053 5.97501 238.933 5.97501C233.813 5.97501 230.4 9.38701 230.4 14.507C230.4 29.014 219.307 40.107 204.8 40.107C199.68 40.107 196.267 43.52 196.267 48.64C196.267 53.76 199.68 57.174 204.8 57.174ZM238.933 40.107C241.493 43.52 244.053 46.08 247.466 48.64C244.053 51.2 241.493 53.76 238.933 57.173C236.373 53.76 233.813 51.2 230.4 48.64C233.813 46.08 236.373 43.52 238.933 40.107Z" fill="black"/>
<path d="M315.733 176.64H324.266V185.173C324.266 190.293 327.679 193.706 332.799 193.706C337.919 193.706 341.332 190.293 341.332 185.173V176.64H349.865C354.985 176.64 358.398 173.227 358.398 168.107C358.398 162.987 354.985 159.574 349.865 159.574H341.332V151.041C341.332 145.921 337.919 142.508 332.799 142.508C327.679 142.508 324.266 145.921 324.266 151.041V159.574H315.733C310.613 159.574 307.2 162.987 307.2 168.107C307.2 173.227 310.613 176.64 315.733 176.64Z" fill="black"/>
<path d="M136.533 168.107C141.653 168.107 145.066 164.694 145.066 159.574C145.066 154.454 141.653 151.041 136.533 151.041C131.413 151.041 128 154.454 128 159.574C128 164.694 131.413 168.107 136.533 168.107Z" fill="black"/>
<path d="M51.2 57.174C56.32 57.174 59.733 53.761 59.733 48.641C59.733 43.521 56.32 40.107 51.2 40.107C46.08 40.107 42.667 43.52 42.667 48.64C42.667 53.76 46.08 57.174 51.2 57.174Z" fill="black"/>
</svg>
